<svg xmlns="http://www.w3.org/2000/svg" xmlns:xlink="http://www.w3.org/1999/xlink" width="500" zoomAndPan="magnify" viewBox="0 0 375 374.999991" height="500" preserveAspectRatio="xMidYMid meet" version="1.0"><defs><g/><clipPath id="id1"><path d="M 22.664062 22.664062 L 352.664062 22.664062 L 352.664062 352.664062 L 22.664062 352.664062 Z M 22.664062 22.664062 " clip-rule="nonzero"/></clipPath><clipPath id="id2"><path d="M 98.929688 45.25 L 144.679688 45.25 L 144.679688 223 L 98.929688 223 Z M 98.929688 45.25 " clip-rule="nonzero"/></clipPath><clipPath id="id3"><path d="M 164.59375 83.09375 L 210.34375 83.09375 L 210.34375 223.34375 L 164.59375 223.34375 Z M 164.59375 83.09375 " clip-rule="nonzero"/></clipPath><clipPath id="id4"><path d="M 230.257812 45.25 L 276.007812 45.25 L 276.007812 223 L 230.257812 223 Z M 230.257812 45.25 " clip-rule="nonzero"/></clipPath></defs><g clip-path="url(#id1)"><path fill="#000000" d="M 331.203125 352.664062 L 44.125 352.664062 C 32.296875 352.664062 22.664062 343.027344 22.664062 331.203125 L 22.664062 44.125 C 22.664062 32.296875 32.296875 22.664062 44.125 22.664062 L 331.203125 22.664062 C 343.027344 22.664062 352.664062 32.296875 352.664062 44.125 L 352.664062 331.203125 C 352.664062 343.027344 343.027344 352.664062 331.203125 352.664062 " fill-opacity="1" fill-rule="nonzero"/></g><g clip-path="url(#id2)"><path fill="#ffd600" d="M 32.777344 45.25 L 210.527344 45.25 L 210.527344 223 L 32.777344 223 Z M 32.777344 45.25 " fill-opacity="1" fill-rule="nonzero"/></g><g clip-path="url(#id3)"><path fill="#ffd600" d="M 117.382812 83.09375 L 257.632812 83.09375 L 257.632812 223.34375 L 117.382812 223.34375 Z M 117.382812 83.09375 " fill-opacity="1" fill-rule="nonzero"/></g><g clip-path="url(#id4)"><path fill="#ffd600" d="M 164.125 45.25 L 341.875 45.25 L 341.875 223 L 164.125 223 Z M 164.125 45.25 " fill-opacity="1" fill-rule="nonzero"/></g><g fill="#ffffff" fill-opacity="1"><g transform="translate(84.594785, 287.844355)"><g><path d="M 15.984375 0.515625 C 23.539062 0.515625 29.65625 -1.386719 35.15625 -3.753906 L 35.15625 0 L 43.019531 0 L 43.019531 -15.265625 C 42.917969 -26.675781 35.722656 -30.582031 23.078125 -30.582031 C 16.652344 -30.582031 10.691406 -29.449219 4.523438 -27.445312 L 7.402344 -21.742188 C 13.824219 -23.695312 18.707031 -24.054688 22.667969 -24.054688 C 26.777344 -24.054688 35.15625 -23.539062 35.15625 -17.21875 C 30.839844 -18.605469 25.699219 -19.582031 20.25 -19.582031 C 10.535156 -19.582031 2.003906 -16.960938 2.003906 -9.148438 C 2.003906 -2.261719 7.042969 0.515625 15.984375 0.515625 Z M 18.195312 -5.449219 C 13.15625 -5.449219 9.867188 -5.707031 9.867188 -9.304688 C 9.867188 -12.746094 14.1875 -13.980469 21.023438 -13.980469 C 27.1875 -13.980469 31.710938 -13.003906 35.15625 -11.871094 L 35.15625 -9.199219 C 30.222656 -7.144531 23.078125 -5.449219 18.195312 -5.449219 Z M 18.195312 -5.449219 "/></g></g></g><g fill="#ffffff" fill-opacity="1"><g transform="translate(137.011503, 287.844355)"><g><path d="M 24.621094 0.515625 C 36.285156 0.515625 43.84375 -0.976562 43.84375 -9.25 C 43.84375 -17.320312 35.722656 -17.578125 23.953125 -18.503906 C 12.796875 -19.375 11.101562 -19.789062 11.101562 -21.792969 C 11.101562 -23.746094 13.671875 -24.464844 22.5625 -24.464844 C 31.402344 -24.464844 34.949219 -23.746094 34.949219 -20.96875 L 42.8125 -20.96875 C 42.8125 -29.089844 34.488281 -30.582031 23.078125 -30.582031 C 12.386719 -30.582031 3.289062 -29.089844 3.289062 -21.433594 C 3.289062 -14.339844 9.867188 -13.3125 22.921875 -12.488281 C 34.4375 -11.71875 35.976562 -11.460938 35.976562 -8.941406 C 35.976562 -6.320312 34.332031 -5.601562 24.105469 -5.601562 C 13.671875 -5.601562 9.867188 -7.042969 9.867188 -10.640625 L 2.003906 -10.640625 C 2.003906 -0.976562 12.953125 0.515625 24.621094 0.515625 Z M 24.621094 0.515625 "/></g></g></g><g fill="#ffffff" fill-opacity="1"><g transform="translate(189.736536, 287.844355)"><g><path d="M 15.984375 0.515625 C 23.539062 0.515625 29.65625 -1.386719 35.15625 -3.753906 L 35.15625 0 L 43.019531 0 L 43.019531 -15.265625 C 42.917969 -26.675781 35.722656 -30.582031 23.078125 -30.582031 C 16.652344 -30.582031 10.691406 -29.449219 4.523438 -27.445312 L 7.402344 -21.742188 C 13.824219 -23.695312 18.707031 -24.054688 22.667969 -24.054688 C 26.777344 -24.054688 35.15625 -23.539062 35.15625 -17.21875 C 30.839844 -18.605469 25.699219 -19.582031 20.25 -19.582031 C 10.535156 -19.582031 2.003906 -16.960938 2.003906 -9.148438 C 2.003906 -2.261719 7.042969 0.515625 15.984375 0.515625 Z M 18.195312 -5.449219 C 13.15625 -5.449219 9.867188 -5.707031 9.867188 -9.304688 C 9.867188 -12.746094 14.1875 -13.980469 21.023438 -13.980469 C 27.1875 -13.980469 31.710938 -13.003906 35.15625 -11.871094 L 35.15625 -9.199219 C 30.222656 -7.144531 23.078125 -5.449219 18.195312 -5.449219 Z M 18.195312 -5.449219 "/></g></g></g><g fill="#ffffff" fill-opacity="1"><g transform="translate(242.153254, 287.844355)"><g><path d="M 16.292969 12.847656 L 24.980469 12.847656 L 46.257812 -30.066406 L 37.570312 -30.066406 L 24.875 -4.78125 L 10.792969 -30.066406 L 2.003906 -30.066406 L 18.453125 0 L 22.667969 0 Z M 16.292969 12.847656 "/></g></g></g><g fill="#ffffff" fill-opacity="1"><g transform="translate(129.003851, 324.647674)"><g><path d="M 8.390625 0.175781 C 13.28125 0.175781 15.699219 -1.753906 16.046875 -5.1875 L 13.246094 -5.1875 C 12.929688 -2.996094 11.195312 -2.15625 8.390625 -2.15625 C 5.082031 -2.15625 3.453125 -3.3125 3.453125 -6.148438 C 3.453125 -8.96875 5.0625 -10.109375 8.390625 -10.109375 C 11.210938 -10.109375 12.929688 -9.285156 13.246094 -7.113281 L 16.03125 -7.113281 C 15.699219 -10.53125 13.28125 -12.4375 8.390625 -12.4375 C 2.996094 -12.4375 0.683594 -10.144531 0.683594 -6.148438 C 0.683594 -2.136719 2.996094 0.175781 8.390625 0.175781 Z M 8.390625 0.175781 "/></g></g></g><g fill="#ffffff" fill-opacity="1"><g transform="translate(147.855281, 324.647674)"><g><path d="M 0.683594 0 L 3.75 0 L 5.238281 -2.714844 L 13.050781 -2.714844 L 14.542969 0 L 17.609375 0 L 10.933594 -12.265625 L 7.359375 -12.265625 Z M 6.308594 -4.851562 L 9.144531 -10.003906 L 11.984375 -4.851562 Z M 6.308594 -4.851562 "/></g></g></g><g fill="#ffffff" fill-opacity="1"><g transform="translate(168.265945, 324.647674)"><g><path d="M 0.859375 0 L 3.625 0 L 3.625 -3.382812 L 10.496094 -3.382812 C 13.28125 -3.382812 15.191406 -5.097656 15.191406 -7.832031 C 15.191406 -10.566406 13.28125 -12.265625 10.496094 -12.265625 L 0.859375 -12.265625 Z M 3.625 -5.710938 L 3.625 -9.933594 L 9.617188 -9.933594 C 10.703125 -9.933594 12.421875 -9.933594 12.421875 -7.832031 C 12.421875 -5.710938 10.703125 -5.710938 9.617188 -5.710938 Z M 3.625 -5.710938 "/></g></g></g><g fill="#ffffff" fill-opacity="1"><g transform="translate(186.25892, 324.647674)"><g><path d="M 0.859375 0 L 3.625 0 L 3.625 -12.265625 L 0.859375 -12.265625 Z M 0.859375 0 "/></g></g></g><g fill="#ffffff" fill-opacity="1"><g transform="translate(192.864231, 324.647674)"><g><path d="M 6.832031 0 L 9.601562 0 L 9.601562 -9.933594 L 15.75 -9.933594 L 15.75 -12.265625 L 0.683594 -12.265625 L 0.683594 -9.933594 L 6.832031 -9.933594 Z M 6.832031 0 "/></g></g></g><g fill="#ffffff" fill-opacity="1"><g transform="translate(211.417827, 324.647674)"><g><path d="M 0.683594 0 L 3.75 0 L 5.238281 -2.714844 L 13.050781 -2.714844 L 14.542969 0 L 17.609375 0 L 10.933594 -12.265625 L 7.359375 -12.265625 Z M 6.308594 -4.851562 L 9.144531 -10.003906 L 11.984375 -4.851562 Z M 6.308594 -4.851562 "/></g></g></g><g fill="#ffffff" fill-opacity="1"><g transform="translate(231.828495, 324.647674)"><g><path d="M 0.859375 0 L 13.472656 0 L 13.472656 -2.332031 L 3.625 -2.332031 L 3.625 -12.265625 L 0.859375 -12.265625 Z M 0.859375 0 "/></g></g></g></svg>